<svg id="Layer_1" enable-background="new 0 0 128 128" height="512" viewBox="0 0 128 128" width="512" xmlns="http://www.w3.org/2000/svg"><path d="m70.048 52.913h-.646c.494-.471.89-1.042 1.151-1.669.249-.604.375-1.237.375-1.881 0-2.695-2.2-4.897-4.915-4.91-2.699.012-4.896 2.215-4.896 4.91 0 .645.126 1.278.376 1.884.259.625.651 1.193 1.146 1.667h-.643c-2.719 0-4.93 2.212-4.93 4.93v12.47c0 1.156.821 2.168 1.902 2.354.605.109 1.219-.022 1.718-.363v12.509c0 1.505 1.229 2.73 2.74 2.73 1.209 0 2.237-.79 2.595-1.881.358 1.091 1.386 1.881 2.595 1.881 1.506 0 2.73-1.225 2.73-2.73v-12.51c.498.34 1.111.473 1.707.365 1.108-.188 1.913-1.178 1.913-2.356v-12.47c.002-2.718-2.205-4.93-4.918-4.93z" fill="#e6e7e8"/><path d="m121.516 65.155-13.481-7.482c-.3-.166-.664-.162-.958.012-.295.173-.476.49-.476.832v4.017h-9.818c-1.599-14.414-12.887-25.701-27.3-27.299v-9.819h4.017c.342 0 .658-.181.832-.475.173-.295.178-.659.012-.958l-7.482-13.483c-.34-.613-1.348-.613-1.688 0l-7.482 13.482c-.166.299-.161.663.012.958.173.294.49.475.832.475h4.017v9.819c-14.414 1.599-25.701 12.886-27.299 27.299h-9.819v-4.017c0-.342-.181-.658-.475-.832-.294-.173-.659-.178-.958-.012l-13.482 7.483c-.307.17-.497.493-.497.844s.19.674.497.844l13.482 7.482c.3.167.664.162.958-.012.294-.173.475-.49.475-.832v-4.017h9.819c1.599 14.414 12.886 25.701 27.299 27.299v9.819h-4.017c-.342 0-.658.181-.832.475-.173.295-.178.659-.012.958l7.482 13.482c.17.307.493.497.844.497s.674-.19.844-.497l7.481-13.482c.166-.299.161-.663-.012-.958-.174-.294-.49-.475-.832-.475h-4.017v-9.819c14.413-1.599 25.701-12.886 27.3-27.299h9.818v4.017c0 .342.181.658.476.832.294.173.658.178.958.012l13.481-7.482c.306-.17.496-.493.496-.844s-.189-.675-.495-.844zm-55.498 24.878c-13.253 0-24.035-10.782-24.035-24.035s10.782-24.035 24.035-24.035 24.035 10.782 24.035 24.035-10.782 24.035-24.035 24.035z" fill="#e6e7e8"/><path d="m69.968 53.843v12.47c0 .65-.43 1.26-1.08 1.37-.83.15-1.55-.49-1.55-1.29v-10.95c0-.23-.19-.43-.43-.43h-.13c-.23 0-.43.2-.43.43v25.37c0 .96-.77 1.73-1.73 1.73s-1.73-.77-1.73-1.73v-12.98c0-.48-.39-.86-.87-.87-.47.01-.86.39-.86.87v12.98c0 .96-.78 1.73-1.73 1.73-.96 0-1.74-.77-1.74-1.73v-25.37c0-.23-.19-.43-.43-.43h-.13c-.23 0-.43.2-.43.43v10.95c0 .8-.72 1.44-1.55 1.29-.64-.11-1.08-.72-1.08-1.37v-12.47c0-2.17 1.76-3.93 3.93-3.93h1.67c.36 0 .65-.29.65-.65 0-.22-.11-.44-.31-.55-.71-.43-1.27-1.08-1.59-1.85-.19-.46-.3-.97-.3-1.5 0-2.16 1.75-3.9 3.9-3.91 2.16.01 3.91 1.75 3.91 3.91 0 .53-.11 1.04-.3 1.5-.32.77-.89 1.42-1.6 1.85-.19.11-.3.33-.3.55 0 .36.29.65.65.65h1.67c2.17 0 3.92 1.76 3.92 3.93z" fill="#fff"/><path d="m66.048 49.913h-1.67c-.205 0-.38-.1-.499-.248h-.126c.011-.046.017-.093.034-.137-.036-.081-.059-.17-.059-.265 0-.22.11-.44.3-.55.164-.099.318-.213.465-.334.103-.086.197-.18.291-.276.034-.035.071-.067.104-.103.116-.128.224-.263.323-.405.003-.005.007-.009.01-.014.103-.15.197-.307.279-.471-.644-1.272-1.953-2.149-3.482-2.158-1.52.009-2.828.887-3.473 2.159.082.163.174.32.277.469.004.006.008.011.012.017.097.141.203.275.317.402.034.038.072.071.108.107.091.094.183.187.284.271.147.121.3.235.464.334.2.11.31.33.31.55 0 .095-.023.184-.059.266.017.044.023.09.034.136h-.126c-.119.148-.294.248-.499.248h-1.67c-2.17 0-3.93 1.76-3.93 3.93v1.738 10.732c0 .65.44 1.26 1.08 1.37.83.15 1.55-.49 1.55-1.29v-10.45-.362-.138c0-.23.2-.43.43-.43h.13c.24 0 .43.2.43.43v.138.362 24.87c0 .96.78 1.73 1.74 1.73.95 0 1.73-.77 1.73-1.73v-12.48-.5c0-.48.39-.86.86-.87.48.01.87.39.87.87v.5 12.48c0 .96.77 1.73 1.73 1.73s1.73-.77 1.73-1.73v-24.87-.362-.138c0-.23.2-.43.43-.43h.13c.24 0 .43.2.43.43v.138.362 10.45c0 .8.72 1.44 1.55 1.29.65-.11 1.08-.72 1.08-1.37v-10.729-1.738c.001-2.171-1.749-3.931-3.919-3.931z" fill="#6dc9f7"/><path d="m117.048 61.998-13.482-7.482v4.982h-11.66c-1.203-14.572-12.816-26.184-27.388-27.388v-11.66h4.982l-7.482-13.481-7.482 13.481h4.982v11.66c-14.573 1.204-26.185 12.816-27.388 27.388h-11.66v-4.982l-13.482 7.482 13.482 7.482v-4.982h11.66c1.203 14.573 12.816 26.185 27.388 27.388v11.66h-4.982l7.482 13.482 7.482-13.482h-4.982v-11.66c14.573-1.203 26.185-12.816 27.388-27.388h11.66v4.982zm-55.03 25c-13.807 0-25-11.193-25-25s11.193-25 25-25 25 11.193 25 25-11.193 25-25 25z" fill="#fa759e"/><g fill="#3a2c60"><path d="m66.048 48.913h-.646c.494-.471.89-1.042 1.151-1.669.249-.604.375-1.237.375-1.881 0-2.695-2.2-4.897-4.915-4.91-2.699.012-4.896 2.215-4.896 4.91 0 .645.126 1.278.376 1.884.259.625.651 1.193 1.146 1.667h-.643c-2.719 0-4.93 2.212-4.93 4.93v12.47c0 1.156.821 2.168 1.902 2.354.605.109 1.219-.022 1.718-.363v12.509c0 1.505 1.229 2.73 2.74 2.73 1.209 0 2.237-.79 2.595-1.881.358 1.091 1.386 1.881 2.595 1.881 1.506 0 2.73-1.225 2.73-2.73v-12.51c.498.34 1.111.473 1.707.365 1.108-.188 1.913-1.178 1.913-2.356v-12.47c.002-2.718-2.205-4.93-4.918-4.93zm2.92 17.4c0 .189-.11.361-.258.386-.126.022-.209-.023-.259-.065-.034-.028-.113-.109-.113-.241v-10.95c0-.789-.642-1.43-1.431-1.43h-.13c-.788 0-1.43.641-1.43 1.43v25.37c0 .409-.321.73-.73.73s-.729-.321-.729-.73v-12.98c0-1.026-.813-1.848-1.892-1.87-1.013.022-1.838.861-1.838 1.87v12.98c0 .402-.328.73-.73.73-.408 0-.74-.328-.74-.73v-25.37c0-.789-.641-1.43-1.43-1.43h-.13c-.789 0-1.43.641-1.43 1.43v10.95c0 .132-.08.212-.114.241-.05.042-.138.087-.267.063-.133-.023-.25-.203-.25-.385v-12.47c0-1.616 1.314-2.93 2.93-2.93h1.67c.91 0 1.65-.74 1.65-1.65 0-.598-.316-1.144-.792-1.406-.527-.319-.948-.809-1.184-1.376-.149-.36-.224-.736-.224-1.118 0-1.597 1.303-2.902 2.896-2.91 1.607.007 2.915 1.313 2.915 2.91 0 .381-.075.758-.223 1.116-.235.565-.66 1.055-1.181 1.37-.491.286-.797.828-.797 1.415 0 .91.74 1.65 1.65 1.65h1.67c1.61 0 2.92 1.314 2.92 2.93v12.47z"/><path d="m87.578 77.726c-.461-.307-1.082-.179-1.386.281-1.299 1.958-2.837 3.759-4.574 5.353-.406.374-.434 1.006-.06 1.413.197.215.466.324.736.324.242 0 .484-.087.677-.263 1.855-1.704 3.5-3.629 4.887-5.721.306-.461.18-1.082-.28-1.387z"/><path d="m62.018 35.998c-14.336 0-26 11.664-26 26s11.664 26 26 26c14.337 0 26-11.664 26-26s-11.663-26-26-26zm0 50c-13.234 0-24-10.766-24-24s10.766-24 24-24c13.233 0 24 10.766 24 24s-10.767 24-24 24z"/><path d="m117.532 61.124-13.481-7.482c-.31-.171-.687-.166-.992.013-.306.18-.493.508-.493.862v3.982h-9.752c-1.612-14.405-12.891-25.684-27.296-27.295v-9.754h3.981c.354 0 .682-.188.861-.493s.185-.683.013-.993l-7.481-13.481c-.353-.635-1.396-.635-1.749 0l-7.482 13.482c-.172.31-.167.688.013.993s.508.493.862.493h3.982v9.752c-14.405 1.611-25.684 12.89-27.295 27.295h-9.753v-3.982c0-.354-.188-.682-.493-.862-.306-.18-.684-.185-.993-.013l-13.481 7.483c-.317.176-.515.511-.515.875s.197.698.515.875l13.482 7.482c.311.171.688.167.993-.013s.493-.508.493-.862v-3.982h9.752c1.611 14.405 12.89 25.684 27.295 27.295v9.752h-3.982c-.354 0-.682.188-.862.493s-.185.683-.013.993l7.482 13.482c.176.317.511.515.875.515s.698-.197.875-.515l7.481-13.482c.172-.31.167-.688-.013-.993s-.507-.493-.861-.493h-3.981v-9.753c5.218-.588 10.21-2.5 14.491-5.557.449-.321.554-.946.232-1.395-.319-.45-.945-.553-1.395-.233-4.238 3.026-9.222 4.853-14.411 5.281-.519.043-.918.476-.918.997v11.66c0 .552.447 1 1 1h3.283l-5.783 10.421-5.783-10.421h3.283c.552 0 1-.448 1-1v-11.66c0-.521-.399-.954-.917-.997-14.17-1.17-25.304-12.304-26.474-26.474-.043-.519-.476-.917-.997-.917h-11.66c-.552 0-1 .448-1 1v3.283l-10.421-5.783 10.421-5.783v3.283c0 .552.448 1 1 1h11.66c.521 0 .954-.399.997-.917 1.17-14.17 12.304-25.304 26.474-26.474.519-.043.917-.476.917-.997v-11.66c0-.552-.448-1-1-1h-3.283l5.783-10.42 5.783 10.421h-3.283c-.553 0-1 .448-1 1v11.66c0 .521.399.954.918.997 14.169 1.17 25.304 12.304 26.474 26.474.043.519.477.917.997.917h11.659c.553 0 1-.448 1-1v-3.283l10.421 5.783-10.421 5.783v-3.283c0-.552-.447-1-1-1h-11.66c-.521 0-.954.399-.997.917-.309 3.745-1.325 7.338-3.02 10.678-.25.493-.054 1.095.439 1.344.49.25 1.094.053 1.344-.439 1.674-3.299 2.729-6.827 3.141-10.501h9.752v3.982c0 .354.188.682.493.862.305.179.682.184.992.013l13.481-7.482c.317-.176.515-.511.515-.875s-.196-.698-.514-.874z"/></g></svg>